<?xml version="1.0" encoding="UTF-8"?>
<svg xmlns="http://www.w3.org/2000/svg" font-family="sans-serif" width="1320" height="1608" viewBox="0 0 1320 1608">
<rect width="100%" height="100%" fill="white"/><defs><clipPath id="plot-clip"><rect x="96.0" y="24.0" width="1200.0" height="1445.5"/></clipPath></defs><g id="grid" stroke="#EDEDED" stroke-width="1.80"><line x1="96.0" y1="24.0" x2="96.0" y2="1469.5"/><line x1="225.3" y1="24.0" x2="225.3" y2="1469.5"/><line x1="354.5" y1="24.0" x2="354.5" y2="1469.5"/><line x1="483.8" y1="24.0" x2="483.8" y2="1469.5"/><line x1="613.1" y1="24.0" x2="613.1" y2="1469.5"/><line x1="742.3" y1="24.0" x2="742.3" y2="1469.5"/><line x1="871.6" y1="24.0" x2="871.6" y2="1469.5"/><line x1="1000.9" y1="24.0" x2="1000.9" y2="1469.5"/><line x1="1130.1" y1="24.0" x2="1130.1" y2="1469.5"/><line x1="1259.4" y1="24.0" x2="1259.4" y2="1469.5"/><line x1="96.0" y1="1469.5" x2="1296.0" y2="1469.5"/><line x1="96.0" y1="1340.2" x2="1296.0" y2="1340.2"/><line x1="96.0" y1="1211.0" x2="1296.0" y2="1211.0"/><line x1="96.0" y1="1081.7" x2="1296.0" y2="1081.7"/><line x1="96.0" y1="952.5" x2="1296.0" y2="952.5"/><line x1="96.0" y1="823.2" x2="1296.0" y2="823.2"/><line x1="96.0" y1="693.9" x2="1296.0" y2="693.9"/><line x1="96.0" y1="564.7" x2="1296.0" y2="564.7"/><line x1="96.0" y1="435.4" x2="1296.0" y2="435.4"/><line x1="96.0" y1="306.1" x2="1296.0" y2="306.1"/><line x1="96.0" y1="176.9" x2="1296.0" y2="176.9"/><line x1="96.0" y1="48.0" x2="1296.0" y2="48.0"/></g><rect x="96.0" y="24.0" width="1200.0" height="1445.5" fill="none" stroke="#808080" stroke-width="6.0"/><g id="separators" stroke="#C0C0C0" stroke-width="3.60"><line x1="96.0" y1="24.0" x2="96.0" y2="1469.5"/><line x1="96.0" y1="1469.5" x2="1296.0" y2="1469.5"/><line x1="96.0" y1="48.0" x2="1296.0" y2="48.0"/></g><g id="segments" stroke-width="6.0" opacity="0.8" clip-path="url(#plot-clip)"><line x1="98.4" y1="1467.1" x2="101.2" y2="1464.3" stroke="#083876"/><line x1="99.3" y1="1466.5" x2="102.1" y2="1463.7" stroke="#084083"/><line x1="100.6" y1="1463.8" x2="103.4" y2="1461.0" stroke="#084286"/><line x1="102.4" y1="1462.0" x2="105.2" y2="1459.1" stroke="#08478D"/><line x1="105.0" y1="1459.4" x2="109.0" y2="1455.4" stroke="#083F82"/><line x1="109.0" y1="1455.2" x2="114.6" y2="1449.6" stroke="#084388"/><line x1="113.7" y1="1450.6" x2="116.5" y2="1447.8" stroke="#08468C"/><line x1="114.4" y1="1449.6" x2="117.3" y2="1446.7" stroke="#083E80"/><line x1="116.5" y1="1447.9" x2="124.8" y2="1439.5" stroke="#083D7E"/><line x1="124.8" y1="1439.5" x2="129.0" y2="1435.3" stroke="#083D7E"/><line x1="129.1" y1="1435.3" x2="134.2" y2="1430.2" stroke="#083E80"/><line x1="133.0" y1="1431.3" x2="135.8" y2="1428.5" stroke="#105CA4"/><line x1="136.7" y1="1427.6" x2="140.8" y2="1423.6" stroke="#084286"/><line x1="140.8" y1="1423.6" x2="143.7" y2="1420.8" stroke="#083A79"/><line x1="143.4" y1="1421.2" x2="146.2" y2="1418.4" stroke="#083B7B"/><line x1="145.8" y1="1418.8" x2="153.8" y2="1410.9" stroke="#083B7B"/><line x1="152.8" y1="1411.8" x2="155.6" y2="1409.0" stroke="#083573"/><line x1="153.5" y1="1411.2" x2="156.3" y2="1408.3" stroke="#083776"/><line x1="154.1" y1="1410.5" x2="157.0" y2="1407.7" stroke="#083F81"/><line x1="155.3" y1="1409.2" x2="158.2" y2="1406.4" stroke="#083B7C"/><line x1="156.4" y1="1400.2" x2="159.3" y2="1397.4" stroke="#084083"/><line x1="157.1" y1="1398.6" x2="159.9" y2="1395.7" stroke="#08468C"/><line x1="158.2" y1="1397.5" x2="161.1" y2="1394.6" stroke="#0A549E"/><line x1="160.0" y1="1395.7" x2="162.9" y2="1392.9" stroke="#084286"/><line x1="162.0" y1="1393.9" x2="164.8" y2="1391.1" stroke="#084083"/><line x1="164.5" y1="45.7" x2="167.3" y2="42.8" stroke="#08478E"/><line x1="164.7" y1="795.5" x2="167.5" y2="792.6" stroke="#75030F"/><line x1="171.5" y1="1387.2" x2="174.3" y2="1384.4" stroke="#083978"/><line x1="173.0" y1="1384.2" x2="176.9" y2="1380.3" stroke="#084285"/><line x1="175.6" y1="1380.9" x2="178.4" y2="1378.1" stroke="#084286"/><line x1="175.9" y1="1379.4" x2="178.7" y2="1376.5" stroke="#083F82"/><line x1="176.5" y1="1378.1" x2="179.4" y2="1375.3" stroke="#083B7C"/><line x1="177.7" y1="1376.8" x2="180.5" y2="1374.0" stroke="#083C7D"/><line x1="179.5" y1="1373.7" x2="182.4" y2="1370.8" stroke="#08478D"/><line x1="181.9" y1="1370.3" x2="184.7" y2="1367.5" stroke="#09539D"/><line x1="184.1" y1="1366.8" x2="186.9" y2="1364.0" stroke="#084082"/><line x1="185.6" y1="1365.3" x2="188.5" y2="1362.5" stroke="#084184"/><line x1="186.7" y1="1364.1" x2="189.5" y2="1361.3" stroke="#083B7B"/><line x1="188.4" y1="1362.5" x2="191.2" y2="1359.6" stroke="#08468B"/><line x1="190.6" y1="1359.8" x2="193.4" y2="1357.0" stroke="#083D7E"/><line x1="191.9" y1="1358.5" x2="194.8" y2="1355.7" stroke="#1A68AE"/><line x1="192.5" y1="1358.0" x2="195.3" y2="1355.2" stroke="#084388"/><line x1="193.3" y1="1060.7" x2="196.2" y2="1057.9" stroke="#6F020E"/><line x1="194.8" y1="1354.9" x2="197.6" y2="1352.1" stroke="#084B93"/><line x1="195.5" y1="1354.3" x2="198.3" y2="1351.4" stroke="#0F5AA3"/><line x1="197.7" y1="1352.3" x2="201.6" y2="1348.4" stroke="#083A7A"/><line x1="200.3" y1="1349.3" x2="203.1" y2="1346.5" stroke="#084488"/><line x1="200.6" y1="1348.9" x2="203.4" y2="1346.0" stroke="#083674"/><line x1="201.2" y1="1348.3" x2="204.0" y2="1345.5" stroke="#083D7E"/><line x1="202.8" y1="1346.6" x2="205.7" y2="1343.8" stroke="#083979"/><line x1="205.1" y1="1344.0" x2="207.9" y2="1341.1" stroke="#083B7B"/><line x1="206.7" y1="1342.2" x2="209.6" y2="1339.3" stroke="#083C7D"/><line x1="207.8" y1="1340.7" x2="210.6" y2="1337.8" stroke="#084D97"/><line x1="209.3" y1="1339.1" x2="222.6" y2="1325.8" stroke="#083B7C"/><line x1="222.3" y1="1326.2" x2="225.1" y2="1323.3" stroke="#083A79"/><line x1="224.7" y1="1323.8" x2="227.5" y2="1321.0" stroke="#083C7D"/><line x1="226.8" y1="1321.8" x2="229.6" y2="1318.9" stroke="#084489"/><line x1="227.5" y1="1314.4" x2="230.3" y2="1311.6" stroke="#0F59A3"/><line x1="228.8" y1="1312.4" x2="231.6" y2="1309.6" stroke="#083C7D"/><line x1="230.3" y1="1311.0" x2="233.1" y2="1308.2" stroke="#0D57A1"/><line x1="230.6" y1="1310.6" x2="233.5" y2="1307.8" stroke="#1865AC"/><line x1="230.8" y1="1399.9" x2="233.6" y2="1397.0" stroke="#125EA6"/><line x1="231.2" y1="1310.3" x2="234.1" y2="1307.5" stroke="#08336F"/><line x1="232.8" y1="1308.8" x2="238.5" y2="1303.1" stroke="#084387"/><line x1="238.6" y1="1303.1" x2="242.0" y2="1299.6" stroke="#083C7C"/><line x1="241.0" y1="1239.6" x2="243.8" y2="1236.8" stroke="#083F82"/><line x1="241.1" y1="1051.8" x2="243.9" y2="1049.0" stroke="#08326E"/><line x1="241.7" y1="1051.4" x2="244.6" y2="1048.6" stroke="#084185"/><line x1="242.8" y1="1050.8" x2="245.6" y2="1048.0" stroke="#084E98"/><line x1="244.2" y1="1050.0" x2="247.0" y2="1047.2" stroke="#084083"/><line x1="244.3" y1="1141.2" x2="247.1" y2="1138.4" stroke="#083877"/><line x1="244.6" y1="1049.6" x2="247.5" y2="1046.8" stroke="#083E80"/><line x1="245.0" y1="1043.6" x2="247.8" y2="1040.8" stroke="#08488F"/><line x1="245.2" y1="1042.7" x2="248.0" y2="1039.9" stroke="#083877"/><line x1="245.9" y1="1041.3" x2="248.7" y2="1038.5" stroke="#083B7C"/><line x1="247.0" y1="1300.1" x2="249.9" y2="1297.2" stroke="#083B7B"/><line x1="248.5" y1="1295.7" x2="251.3" y2="1292.9" stroke="#084990"/><line x1="248.9" y1="1241.5" x2="251.8" y2="1238.7" stroke="#08306B"/><line x1="249.8" y1="1294.4" x2="252.6" y2="1291.6" stroke="#084285"/><line x1="251.2" y1="1293.0" x2="254.0" y2="1290.2" stroke="#083F81"/><line x1="253.6" y1="1290.8" x2="257.4" y2="1287.0" stroke="#084489"/><line x1="257.5" y1="1286.9" x2="260.9" y2="1283.6" stroke="#084286"/><line x1="259.7" y1="1284.8" x2="262.5" y2="1281.9" stroke="#083B7B"/><line x1="261.4" y1="1283.1" x2="264.5" y2="1279.9" stroke="#083B7B"/><line x1="264.5" y1="1279.9" x2="273.8" y2="1270.7" stroke="#083E80"/><line x1="274.0" y1="1270.7" x2="276.9" y2="1267.9" stroke="#083F81"/><line x1="276.9" y1="1268.0" x2="280.9" y2="1263.9" stroke="#083C7D"/><line x1="280.4" y1="1264.9" x2="283.2" y2="1262.0" stroke="#0B559F"/><line x1="280.9" y1="1264.3" x2="283.7" y2="1261.5" stroke="#A6CEE4"/><line x1="282.4" y1="1262.8" x2="285.5" y2="1259.7" stroke="#08458A"/><line x1="284.1" y1="195.7" x2="287.0" y2="192.9" stroke="#0E58A2"/><line x1="284.5" y1="195.8" x2="287.3" y2="193.0" stroke="#084083"/><line x1="284.7" y1="1261.0" x2="287.6" y2="1258.2" stroke="#083A7A"/><line x1="285.2" y1="1260.2" x2="288.1" y2="1257.4" stroke="#08488F"/><line x1="285.5" y1="940.6" x2="288.3" y2="937.7" stroke="#084F99"/><line x1="286.8" y1="1258.9" x2="289.6" y2="1256.1" stroke="#08468C"/><line x1="290.6" y1="1255.1" x2="293.4" y2="1252.3" stroke="#083A79"/><line x1="292.1" y1="1253.6" x2="294.9" y2="1250.8" stroke="#083876"/><line x1="295.2" y1="1248.5" x2="298.0" y2="1245.6" stroke="#084082"/><line x1="296.5" y1="1247.2" x2="299.3" y2="1244.4" stroke="#084489"/><line x1="296.5" y1="1247.3" x2="299.4" y2="1244.4" stroke="#08498F"/><line x1="298.2" y1="1245.7" x2="304.7" y2="1239.1" stroke="#084387"/><line x1="304.7" y1="1229.2" x2="311.1" y2="1222.8" stroke="#084387"/><line x1="311.3" y1="1222.0" x2="314.6" y2="1218.8" stroke="#084184"/><line x1="314.7" y1="1218.7" x2="317.7" y2="1215.7" stroke="#083A79"/><line x1="317.2" y1="1216.2" x2="320.0" y2="1213.4" stroke="#084387"/><line x1="319.5" y1="1213.9" x2="322.6" y2="1210.7" stroke="#083D7E"/><line x1="322.7" y1="1210.5" x2="328.5" y2="1204.6" stroke="#083C7C"/><line x1="327.8" y1="1204.5" x2="330.6" y2="1201.7" stroke="#084C95"/><line x1="329.8" y1="1201.8" x2="332.6" y2="1199.0" stroke="#08488E"/><line x1="331.2" y1="706.1" x2="334.0" y2="703.3" stroke="#1D6CB1"/><line x1="332.7" y1="1199.0" x2="337.9" y2="1193.7" stroke="#083A79"/><line x1="337.9" y1="1193.7" x2="341.3" y2="1190.3" stroke="#083979"/><line x1="341.7" y1="1190.3" x2="350.5" y2="1181.5" stroke="#083B7C"/><line x1="350.5" y1="1181.5" x2="362.7" y2="1169.3" stroke="#083B7C"/><line x1="362.7" y1="1156.5" x2="367.4" y2="1151.8" stroke="#083D7F"/><line x1="367.6" y1="1151.8" x2="372.0" y2="1147.3" stroke="#08478E"/><line x1="370.7" y1="1132.5" x2="373.5" y2="1129.7" stroke="#0F59A3"/><line x1="372.4" y1="1130.8" x2="375.4" y2="1127.8" stroke="#084488"/><line x1="375.5" y1="1127.1" x2="378.9" y2="1123.8" stroke="#083673"/><line x1="378.0" y1="1116.8" x2="380.8" y2="1114.0" stroke="#083C7D"/><line x1="379.8" y1="1092.9" x2="389.0" y2="1083.6" stroke="#083C7D"/><line x1="387.7" y1="1084.9" x2="390.6" y2="1082.1" stroke="#084990"/><line x1="389.4" y1="1083.3" x2="396.3" y2="1076.3" stroke="#083A7A"/><line x1="396.3" y1="1076.3" x2="401.1" y2="1071.5" stroke="#083F82"/><line x1="400.3" y1="1072.6" x2="403.2" y2="1069.8" stroke="#083C7D"/><line x1="401.2" y1="1059.2" x2="404.0" y2="1056.4" stroke="#083B7B"/><line x1="402.8" y1="1053.6" x2="405.7" y2="1050.8" stroke="#083D7E"/><line x1="407.4" y1="1391.5" x2="410.2" y2="1388.7" stroke="#1360A7"/><line x1="407.8" y1="1052.6" x2="410.6" y2="1049.8" stroke="#08529C"/><line x1="412.3" y1="1039.0" x2="416.6" y2="1034.7" stroke="#083B7C"/><line x1="415.7" y1="1035.6" x2="418.5" y2="1032.8" stroke="#08468B"/><line x1="416.3" y1="1034.7" x2="419.2" y2="1031.8" stroke="#083B7B"/><line x1="417.3" y1="1032.1" x2="420.2" y2="1029.2" stroke="#083D7E"/><line x1="420.3" y1="1029.9" x2="424.3" y2="1025.9" stroke="#083D7E"/><line x1="423.0" y1="1027.4" x2="425.8" y2="1024.5" stroke="#08458B"/><line x1="423.3" y1="1027.0" x2="426.1" y2="1024.2" stroke="#083C7D"/><line x1="424.5" y1="1025.9" x2="427.3" y2="1023.1" stroke="#083979"/><line x1="426.3" y1="1024.1" x2="429.1" y2="1021.2" stroke="#083A7A"/><line x1="427.3" y1="1023.1" x2="430.1" y2="1020.2" stroke="#105CA4"/><line x1="428.3" y1="1022.1" x2="431.1" y2="1019.3" stroke="#083A7A"/><line x1="429.3" y1="77.1" x2="432.2" y2="74.3" stroke="#2070B4"/><line x1="430.0" y1="1020.7" x2="432.8" y2="1017.8" stroke="#083776"/><line x1="432.3" y1="1018.7" x2="435.8" y2="1015.1" stroke="#083A7A"/><line x1="435.8" y1="1000.1" x2="438.7" y2="997.3" stroke="#08488E"/><line x1="438.8" y1="997.2" x2="445.3" y2="990.7" stroke="#083E7F"/><line x1="445.5" y1="988.7" x2="448.3" y2="985.9" stroke="#083D7F"/><line x1="447.4" y1="986.8" x2="450.2" y2="984.0" stroke="#08509A"/><line x1="449.4" y1="984.8" x2="455.5" y2="978.7" stroke="#08488E"/><line x1="454.8" y1="979.0" x2="457.7" y2="976.1" stroke="#083D7E"/><line x1="456.3" y1="977.8" x2="459.1" y2="975.0" stroke="#083673"/><line x1="458.2" y1="975.6" x2="463.0" y2="970.8" stroke="#083978"/><line x1="461.7" y1="1071.5" x2="464.6" y2="1068.6" stroke="#1764AB"/><line x1="461.9" y1="971.9" x2="464.8" y2="969.1" stroke="#2171B5"/><line x1="462.3" y1="971.5" x2="465.1" y2="968.7" stroke="#2878B9"/><line x1="462.6" y1="1050.1" x2="465.4" y2="1047.3" stroke="#083471"/><line x1="463.6" y1="962.1" x2="466.5" y2="959.3" stroke="#084489"/><line x1="464.0" y1="962.0" x2="466.9" y2="959.2" stroke="#084B94"/><line x1="464.3" y1="1044.2" x2="467.1" y2="1041.4" stroke="#115CA5"/><line x1="464.8" y1="1043.8" x2="467.6" y2="1041.0" stroke="#084388"/><line x1="464.9" y1="1043.7" x2="467.8" y2="1040.8" stroke="#135FA7"/><line x1="466.9" y1="959.6" x2="469.7" y2="956.8" stroke="#083A7A"/><line x1="474.3" y1="1060.7" x2="477.1" y2="1057.9" stroke="#083471"/><line x1="474.6" y1="795.5" x2="477.4" y2="792.6" stroke="#70020E"/><line x1="477.1" y1="955.0" x2="480.4" y2="951.7" stroke="#08478E"/><line x1="480.5" y1="951.2" x2="484.6" y2="947.1" stroke="#083C7D"/><line x1="483.4" y1="631.5" x2="486.2" y2="628.7" stroke="#8E0912"/><line x1="485.1" y1="947.1" x2="491.0" y2="941.1" stroke="#083C7D"/><line x1="489.7" y1="1310.7" x2="492.6" y2="1307.9" stroke="#1865AC"/><line x1="489.9" y1="941.1" x2="492.7" y2="938.3" stroke="#08306B"/><line x1="490.3" y1="1399.6" x2="493.1" y2="1396.7" stroke="#083877"/><line x1="490.7" y1="940.5" x2="493.5" y2="937.7" stroke="#083D7E"/><line x1="492.2" y1="939.0" x2="495.5" y2="935.8" stroke="#08468C"/><line x1="494.2" y1="936.9" x2="497.0" y2="934.1" stroke="#084184"/><line x1="495.0" y1="935.6" x2="497.9" y2="932.8" stroke="#083C7C"/><line x1="497.3" y1="933.4" x2="502.4" y2="928.3" stroke="#083F82"/><line x1="502.5" y1="928.2" x2="507.1" y2="923.6" stroke="#083C7C"/><line x1="505.7" y1="924.1" x2="508.6" y2="921.3" stroke="#09529D"/><line x1="506.0" y1="923.9" x2="508.8" y2="921.1" stroke="#084D96"/><line x1="507.7" y1="922.3" x2="512.7" y2="917.3" stroke="#084184"/><line x1="512.7" y1="917.2" x2="515.5" y2="914.4" stroke="#084B92"/><line x1="515.3" y1="914.2" x2="518.2" y2="911.4" stroke="#083C7C"/><line x1="517.2" y1="1043.7" x2="520.0" y2="1040.8" stroke="#A91016"/><line x1="517.4" y1="1043.8" x2="520.2" y2="1041.0" stroke="#D01D1F"/><line x1="517.6" y1="906.8" x2="520.4" y2="904.0" stroke="#A0CBE2"/><line x1="517.7" y1="1049.6" x2="520.6" y2="1046.7" stroke="#67000D"/><line x1="519.9" y1="890.9" x2="522.7" y2="888.0" stroke="#08458A"/><line x1="520.8" y1="1169.2" x2="523.6" y2="1166.4" stroke="#870811"/><line x1="520.9" y1="889.1" x2="523.7" y2="886.3" stroke="#084489"/><line x1="521.2" y1="888.8" x2="524.0" y2="886.0" stroke="#0A549E"/><line x1="521.5" y1="1060.8" x2="524.3" y2="1057.9" stroke="#6E020E"/><line x1="521.6" y1="888.0" x2="524.5" y2="885.2" stroke="#083673"/><line x1="521.8" y1="901.2" x2="524.6" y2="898.3" stroke="#2272B6"/><line x1="523.9" y1="886.5" x2="533.2" y2="877.2" stroke="#083A7A"/><line x1="533.3" y1="877.1" x2="540.6" y2="869.9" stroke="#083F82"/><line x1="540.6" y1="869.9" x2="544.8" y2="865.6" stroke="#083D7F"/><line x1="544.8" y1="865.6" x2="549.6" y2="860.8" stroke="#083A7A"/><line x1="549.6" y1="860.8" x2="565.5" y2="844.9" stroke="#083C7C"/><line x1="565.7" y1="844.8" x2="574.5" y2="836.0" stroke="#084083"/><line x1="573.5" y1="836.8" x2="576.3" y2="834.0" stroke="#083877"/><line x1="574.2" y1="835.8" x2="577.0" y2="832.9" stroke="#083877"/><line x1="575.9" y1="834.0" x2="582.8" y2="827.1" stroke="#083A7A"/><line x1="582.9" y1="827.0" x2="598.6" y2="811.2" stroke="#083B7C"/><line x1="598.7" y1="811.2" x2="607.5" y2="802.4" stroke="#083C7D"/><line x1="607.7" y1="802.4" x2="610.9" y2="799.1" stroke="#083E80"/><line x1="610.9" y1="793.7" x2="613.7" y2="790.9" stroke="#083A7B"/><line x1="613.5" y1="791.1" x2="616.3" y2="788.2" stroke="#084184"/><line x1="614.6" y1="789.4" x2="617.4" y2="786.6" stroke="#559FCD"/><line x1="616.2" y1="787.8" x2="622.0" y2="782.0" stroke="#084184"/><line x1="620.6" y1="783.4" x2="623.5" y2="780.5" stroke="#74B3D8"/><line x1="620.7" y1="783.3" x2="623.5" y2="780.5" stroke="#08488E"/><line x1="621.3" y1="782.7" x2="624.1" y2="779.9" stroke="#084184"/><line x1="622.4" y1="781.6" x2="625.2" y2="778.8" stroke="#083F81"/><line x1="623.5" y1="769.1" x2="626.3" y2="766.3" stroke="#083E80"/><line x1="625.6" y1="766.8" x2="630.1" y2="762.3" stroke="#08478D"/><line x1="628.7" y1="763.0" x2="631.6" y2="760.2" stroke="#08306B"/><line x1="629.3" y1="762.8" x2="632.1" y2="760.0" stroke="#083370"/><line x1="629.6" y1="1060.7" x2="632.5" y2="1057.9" stroke="#083471"/><line x1="629.8" y1="762.6" x2="632.7" y2="759.8" stroke="#08306B"/><line x1="630.0" y1="1097.7" x2="632.8" y2="1094.9" stroke="#0D57A1"/><line x1="630.8" y1="1096.9" x2="633.7" y2="1094.1" stroke="#1562A9"/><line x1="631.6" y1="760.1" x2="634.4" y2="757.2" stroke="#08336F"/><line x1="633.2" y1="758.4" x2="636.1" y2="755.5" stroke="#083D7F"/><line x1="636.3" y1="755.4" x2="639.2" y2="752.5" stroke="#084C95"/><line x1="641.1" y1="750.1" x2="643.9" y2="747.3" stroke="#0B549F"/><line x1="641.8" y1="749.1" x2="644.6" y2="746.3" stroke="#0A549E"/><line x1="642.9" y1="748.0" x2="645.7" y2="745.2" stroke="#0B549F"/><line x1="644.9" y1="746.0" x2="649.1" y2="741.8" stroke="#084388"/><line x1="649.2" y1="741.6" x2="652.1" y2="738.7" stroke="#084387"/><line x1="651.1" y1="739.8" x2="654.0" y2="737.0" stroke="#135FA7"/><line x1="652.8" y1="738.0" x2="656.3" y2="734.6" stroke="#084388"/><line x1="655.4" y1="735.7" x2="658.2" y2="732.8" stroke="#084286"/><line x1="656.7" y1="734.6" x2="659.6" y2="731.8" stroke="#083F81"/><line x1="658.6" y1="732.8" x2="661.4" y2="730.0" stroke="#084184"/><line x1="659.9" y1="730.9" x2="662.7" y2="728.1" stroke="#1562A9"/><line x1="661.4" y1="729.4" x2="664.2" y2="726.6" stroke="#3585BF"/><line x1="663.8" y1="726.2" x2="666.6" y2="723.4" stroke="#105BA4"/><line x1="665.3" y1="724.4" x2="668.2" y2="721.6" stroke="#084E98"/><line x1="666.7" y1="722.7" x2="669.5" y2="719.9" stroke="#083D7E"/><line x1="668.6" y1="708.4" x2="672.3" y2="704.8" stroke="#08478D"/><line x1="670.9" y1="1200.4" x2="673.7" y2="1197.6" stroke="#1664AA"/><line x1="671.1" y1="705.9" x2="673.9" y2="703.1" stroke="#084184"/><line x1="672.7" y1="702.8" x2="676.5" y2="699.0" stroke="#083E80"/><line x1="676.0" y1="699.4" x2="678.9" y2="696.6" stroke="#083674"/><line x1="678.4" y1="697.0" x2="687.7" y2="687.7" stroke="#084082"/><line x1="686.8" y1="689.0" x2="689.6" y2="686.2" stroke="#083B7C"/><line x1="688.4" y1="687.5" x2="691.8" y2="684.1" stroke="#083C7D"/><line x1="691.4" y1="684.6" x2="694.2" y2="681.8" stroke="#083B7B"/><line x1="692.3" y1="683.7" x2="695.1" y2="680.8" stroke="#0A549E"/><line x1="693.4" y1="682.6" x2="696.2" y2="679.8" stroke="#083B7C"/><line x1="697.7" y1="680.2" x2="703.4" y2="674.4" stroke="#08458A"/><line x1="703.1" y1="673.8" x2="705.9" y2="671.0" stroke="#083C7D"/><line x1="704.5" y1="672.5" x2="707.3" y2="669.6" stroke="#083C7D"/><line x1="706.0" y1="670.6" x2="712.3" y2="664.3" stroke="#084184"/><line x1="711.7" y1="665.4" x2="714.5" y2="662.6" stroke="#084E98"/><line x1="712.9" y1="664.9" x2="715.7" y2="662.1" stroke="#084083"/><line x1="714.7" y1="663.0" x2="724.5" y2="653.3" stroke="#083B7C"/><line x1="724.5" y1="653.2" x2="729.2" y2="648.5" stroke="#084489"/><line x1="730.5" y1="647.1" x2="733.4" y2="644.3" stroke="#08458B"/><line x1="732.0" y1="645.6" x2="734.8" y2="642.8" stroke="#084D96"/><line x1="733.4" y1="1391.8" x2="736.3" y2="1389.0" stroke="#083B7C"/><line x1="736.9" y1="640.3" x2="746.0" y2="631.2" stroke="#084184"/><line x1="745.4" y1="632.2" x2="748.2" y2="629.4" stroke="#083775"/><line x1="746.2" y1="631.0" x2="749.0" y2="628.1" stroke="#083775"/><line x1="749.0" y1="629.2" x2="752.1" y2="626.1" stroke="#083978"/><line x1="751.6" y1="626.9" x2="754.4" y2="624.1" stroke="#084B93"/><line x1="753.1" y1="625.4" x2="755.9" y2="622.6" stroke="#084E97"/><line x1="755.0" y1="623.5" x2="757.8" y2="620.7" stroke="#084286"/><line x1="758.2" y1="622.1" x2="761.0" y2="619.3" stroke="#084387"/><line x1="759.3" y1="621.0" x2="762.1" y2="618.2" stroke="#084185"/><line x1="761.4" y1="618.9" x2="770.7" y2="609.7" stroke="#083E80"/><line x1="770.7" y1="609.7" x2="779.8" y2="600.5" stroke="#083A79"/><line x1="779.5" y1="599.6" x2="782.3" y2="596.8" stroke="#083C7E"/><line x1="781.7" y1="597.5" x2="784.5" y2="594.6" stroke="#083979"/><line x1="782.8" y1="596.4" x2="785.6" y2="593.6" stroke="#083A7A"/><line x1="784.4" y1="594.8" x2="789.9" y2="589.3" stroke="#084285"/><line x1="790.0" y1="589.3" x2="797.7" y2="581.5" stroke="#083F81"/><line x1="797.8" y1="581.5" x2="800.8" y2="578.5" stroke="#084184"/><line x1="799.8" y1="579.5" x2="802.6" y2="576.7" stroke="#083775"/><line x1="800.2" y1="579.1" x2="803.0" y2="576.3" stroke="#125EA6"/><line x1="801.7" y1="577.6" x2="805.4" y2="573.9" stroke="#083B7B"/><line x1="804.3" y1="575.0" x2="807.1" y2="572.2" stroke="#08326E"/><line x1="805.8" y1="573.5" x2="808.7" y2="570.7" stroke="#083B7C"/><line x1="814.2" y1="564.6" x2="820.0" y2="558.8" stroke="#084990"/><line x1="820.0" y1="558.2" x2="824.5" y2="553.8" stroke="#083C7C"/><line x1="823.2" y1="555.1" x2="826.0" y2="552.3" stroke="#083674"/><line x1="824.7" y1="553.7" x2="828.5" y2="549.8" stroke="#083D7E"/><line x1="828.6" y1="549.8" x2="835.5" y2="542.9" stroke="#084488"/><line x1="837.1" y1="542.1" x2="840.0" y2="539.2" stroke="#083D7F"/><line x1="842.5" y1="536.8" x2="846.7" y2="532.6" stroke="#08458A"/><line x1="845.6" y1="533.8" x2="848.4" y2="531.0" stroke="#08458A"/><line x1="847.4" y1="531.3" x2="869.1" y2="509.6" stroke="#083B7C"/><line x1="868.5" y1="510.2" x2="871.3" y2="507.4" stroke="#084C95"/><line x1="869.4" y1="1060.7" x2="872.2" y2="1057.9" stroke="#083471"/><line x1="869.7" y1="504.9" x2="872.6" y2="502.0" stroke="#083E80"/><line x1="871.3" y1="503.3" x2="874.8" y2="499.8" stroke="#083A79"/><line x1="874.8" y1="499.8" x2="880.3" y2="494.4" stroke="#083A7A"/><line x1="880.0" y1="494.7" x2="882.8" y2="491.8" stroke="#083E80"/><line x1="881.5" y1="493.2" x2="884.3" y2="490.4" stroke="#083D7F"/><line x1="883.5" y1="491.4" x2="886.3" y2="488.6" stroke="#084184"/><line x1="885.2" y1="489.6" x2="888.0" y2="486.8" stroke="#083B7B"/><line x1="887.0" y1="487.8" x2="890.7" y2="484.1" stroke="#083878"/><line x1="890.6" y1="483.4" x2="893.4" y2="480.6" stroke="#084286"/><line x1="893.3" y1="480.5" x2="900.1" y2="473.6" stroke="#084387"/><line x1="906.5" y1="467.5" x2="909.8" y2="464.3" stroke="#083E7F"/><line x1="909.8" y1="464.3" x2="915.0" y2="459.1" stroke="#083B7B"/><line x1="914.2" y1="460.1" x2="917.0" y2="457.3" stroke="#083B7C"/><line x1="914.9" y1="459.6" x2="917.7" y2="456.8" stroke="#083472"/><line x1="916.4" y1="456.1" x2="919.4" y2="453.2" stroke="#083E80"/><line x1="918.5" y1="1060.7" x2="921.3" y2="1057.9" stroke="#6F020E"/><line x1="921.2" y1="453.1" x2="931.4" y2="442.9" stroke="#084083"/><line x1="930.7" y1="443.5" x2="933.5" y2="440.7" stroke="#084B92"/><line x1="932.9" y1="441.4" x2="941.3" y2="433.0" stroke="#083D7E"/><line x1="941.4" y1="432.9" x2="944.2" y2="430.1" stroke="#083978"/><line x1="944.2" y1="429.6" x2="947.0" y2="426.7" stroke="#083E80"/><line x1="947.1" y1="426.4" x2="957.0" y2="416.5" stroke="#083B7B"/><line x1="957.0" y1="416.5" x2="964.8" y2="408.8" stroke="#083B7B"/><line x1="965.3" y1="410.0" x2="968.2" y2="407.2" stroke="#083E80"/><line x1="966.8" y1="408.6" x2="973.0" y2="402.4" stroke="#083C7C"/><line x1="973.0" y1="402.4" x2="979.4" y2="396.1" stroke="#083877"/><line x1="979.1" y1="396.4" x2="981.9" y2="393.6" stroke="#083C7D"/><line x1="980.4" y1="395.1" x2="983.2" y2="392.3" stroke="#083978"/><line x1="981.9" y1="393.5" x2="988.8" y2="386.6" stroke="#083674"/><line x1="993.1" y1="386.2" x2="1002.1" y2="377.2" stroke="#083D7E"/><line x1="1004.1" y1="377.2" x2="1011.1" y2="370.2" stroke="#083D7E"/><line x1="1011.1" y1="370.2" x2="1015.2" y2="366.2" stroke="#084286"/><line x1="1014.9" y1="366.3" x2="1017.7" y2="363.4" stroke="#08478E"/><line x1="1017.4" y1="363.1" x2="1020.4" y2="360.0" stroke="#083877"/><line x1="1019.8" y1="359.8" x2="1022.6" y2="356.9" stroke="#084185"/><line x1="1022.4" y1="357.6" x2="1025.2" y2="354.7" stroke="#084E97"/><line x1="1024.2" y1="355.6" x2="1027.0" y2="352.8" stroke="#08478E"/><line x1="1026.3" y1="353.2" x2="1030.0" y2="349.5" stroke="#083F82"/><line x1="1029.4" y1="346.1" x2="1032.2" y2="343.3" stroke="#084A92"/><line x1="1030.7" y1="305.8" x2="1033.6" y2="302.9" stroke="#084083"/><line x1="1031.7" y1="940.6" x2="1034.5" y2="937.7" stroke="#083B7B"/><line x1="1031.8" y1="940.4" x2="1034.7" y2="937.6" stroke="#083E80"/><line x1="1033.3" y1="342.3" x2="1036.8" y2="338.8" stroke="#084C95"/><line x1="1036.9" y1="338.8" x2="1040.2" y2="335.5" stroke="#084D96"/><line x1="1039.3" y1="336.6" x2="1042.1" y2="333.8" stroke="#084082"/><line x1="1041.0" y1="332.6" x2="1044.7" y2="328.9" stroke="#083978"/><line x1="1044.7" y1="328.9" x2="1054.1" y2="319.5" stroke="#083D7E"/><line x1="1053.0" y1="320.6" x2="1055.9" y2="317.8" stroke="#083E80"/><line x1="1053.7" y1="320.0" x2="1056.6" y2="317.1" stroke="#083D7F"/><line x1="1055.2" y1="317.0" x2="1058.0" y2="314.2" stroke="#083C7C"/><line x1="1058.3" y1="314.3" x2="1063.4" y2="309.2" stroke="#084184"/><line x1="1065.1" y1="308.8" x2="1067.9" y2="305.9" stroke="#084285"/><line x1="1066.5" y1="307.0" x2="1069.3" y2="304.2" stroke="#083B7B"/><line x1="1067.7" y1="305.8" x2="1070.5" y2="303.0" stroke="#083E80"/><line x1="1068.6" y1="1261.1" x2="1071.4" y2="1258.3" stroke="#1561A9"/><line x1="1069.5" y1="304.5" x2="1072.3" y2="301.6" stroke="#083673"/><line x1="1070.7" y1="303.3" x2="1073.5" y2="300.4" stroke="#084286"/><line x1="1072.5" y1="299.9" x2="1077.6" y2="294.8" stroke="#083E80"/><line x1="1080.6" y1="292.6" x2="1085.5" y2="287.7" stroke="#083F81"/><line x1="1085.2" y1="287.7" x2="1088.1" y2="284.9" stroke="#083C7D"/><line x1="1087.1" y1="275.1" x2="1090.0" y2="272.2" stroke="#0D58A1"/><line x1="1087.6" y1="274.6" x2="1090.4" y2="271.8" stroke="#105CA4"/><line x1="1089.0" y1="273.0" x2="1091.8" y2="270.2" stroke="#08468B"/><line x1="1091.5" y1="269.6" x2="1094.3" y2="266.8" stroke="#084285"/><line x1="1094.0" y1="266.9" x2="1096.9" y2="264.1" stroke="#084083"/><line x1="1097.9" y1="264.3" x2="1101.2" y2="261.0" stroke="#083E80"/><line x1="1101.0" y1="260.6" x2="1103.8" y2="257.7" stroke="#08529C"/><line x1="1105.2" y1="256.8" x2="1108.1" y2="254.0" stroke="#084184"/><line x1="1107.3" y1="253.0" x2="1115.7" y2="244.7" stroke="#083878"/><line x1="1115.7" y1="244.6" x2="1119.6" y2="240.7" stroke="#084387"/><line x1="1119.6" y1="240.7" x2="1125.6" y2="234.8" stroke="#083979"/><line x1="1125.6" y1="234.7" x2="1130.1" y2="230.1" stroke="#084387"/><line x1="1129.0" y1="231.0" x2="1131.9" y2="228.2" stroke="#083B7B"/><line x1="1131.0" y1="228.6" x2="1137.2" y2="222.4" stroke="#083C7D"/><line x1="1136.8" y1="222.8" x2="1139.7" y2="220.0" stroke="#084286"/><line x1="1138.2" y1="221.5" x2="1141.0" y2="218.6" stroke="#083674"/><line x1="1138.7" y1="220.9" x2="1141.5" y2="218.1" stroke="#083573"/><line x1="1139.0" y1="220.6" x2="1141.9" y2="217.8" stroke="#083776"/><line x1="1140.4" y1="219.3" x2="1143.3" y2="216.4" stroke="#083775"/><line x1="1142.0" y1="217.7" x2="1144.9" y2="214.8" stroke="#083C7D"/><line x1="1142.9" y1="216.8" x2="1145.8" y2="214.0" stroke="#08458A"/><line x1="1144.8" y1="215.0" x2="1148.0" y2="211.7" stroke="#08478E"/><line x1="1146.8" y1="212.7" x2="1149.6" y2="209.9" stroke="#135FA7"/><line x1="1148.0" y1="211.5" x2="1150.8" y2="208.7" stroke="#084286"/><line x1="1150.5" y1="208.5" x2="1154.1" y2="204.9" stroke="#084488"/><line x1="1152.9" y1="205.7" x2="1155.8" y2="202.8" stroke="#0B559F"/><line x1="1154.6" y1="204.1" x2="1160.0" y2="198.6" stroke="#083B7B"/><line x1="1159.0" y1="199.6" x2="1161.8" y2="196.8" stroke="#083573"/><line x1="1160.5" y1="197.8" x2="1163.3" y2="194.9" stroke="#084082"/><line x1="1161.7" y1="195.1" x2="1164.6" y2="192.3" stroke="#0C56A0"/><line x1="1163.2" y1="193.7" x2="1169.8" y2="187.1" stroke="#084388"/><line x1="1169.4" y1="187.6" x2="1172.2" y2="184.8" stroke="#083E7F"/><line x1="1171.0" y1="185.2" x2="1173.9" y2="182.4" stroke="#083D7E"/><line x1="1172.0" y1="184.3" x2="1174.8" y2="181.5" stroke="#083573"/><line x1="1172.3" y1="183.9" x2="1175.2" y2="181.1" stroke="#08316D"/><line x1="1172.8" y1="183.5" x2="1175.6" y2="180.7" stroke="#083472"/><line x1="1174.2" y1="182.2" x2="1177.0" y2="179.3" stroke="#083877"/><line x1="1176.5" y1="179.8" x2="1179.3" y2="177.0" stroke="#083674"/><line x1="1179.3" y1="177.1" x2="1184.6" y2="171.8" stroke="#08468C"/><line x1="1183.5" y1="172.9" x2="1186.3" y2="170.1" stroke="#083572"/><line x1="1183.8" y1="172.6" x2="1186.6" y2="169.8" stroke="#083B7B"/><line x1="1185.4" y1="171.1" x2="1189.6" y2="166.9" stroke="#084488"/><line x1="1188.4" y1="156.5" x2="1191.2" y2="153.7" stroke="#08488F"/><line x1="1189.0" y1="155.8" x2="1191.9" y2="153.0" stroke="#083979"/><line x1="1191.0" y1="153.9" x2="1194.6" y2="150.3" stroke="#083C7D"/><line x1="1194.6" y1="150.3" x2="1206.6" y2="138.3" stroke="#084388"/><line x1="1206.7" y1="138.4" x2="1209.5" y2="135.5" stroke="#083D7E"/><line x1="1211.4" y1="133.1" x2="1214.4" y2="130.1" stroke="#084F9A"/><line x1="1213.0" y1="131.5" x2="1215.8" y2="128.7" stroke="#084A92"/><line x1="1214.5" y1="130.1" x2="1226.9" y2="117.7" stroke="#083978"/><line x1="1226.9" y1="117.7" x2="1229.8" y2="114.9" stroke="#083B7B"/><line x1="1229.9" y1="114.8" x2="1240.8" y2="104.0" stroke="#083C7E"/><line x1="1240.2" y1="104.1" x2="1243.0" y2="101.3" stroke="#083978"/><line x1="1241.7" y1="102.6" x2="1244.5" y2="99.8" stroke="#083C7D"/><line x1="1243.8" y1="100.5" x2="1249.2" y2="95.1" stroke="#083F81"/><line x1="1249.2" y1="95.1" x2="1253.2" y2="91.1" stroke="#083E7F"/><line x1="1252.1" y1="92.2" x2="1255.0" y2="89.3" stroke="#1764AB"/><line x1="1253.2" y1="91.1" x2="1256.1" y2="88.3" stroke="#08458A"/><line x1="1254.7" y1="89.6" x2="1257.5" y2="86.8" stroke="#083978"/><line x1="1256.9" y1="88.7" x2="1259.7" y2="85.8" stroke="#083C7D"/><line x1="1257.7" y1="1060.7" x2="1260.5" y2="1057.9" stroke="#6F020E"/><line x1="1259.8" y1="45.6" x2="1262.7" y2="42.8" stroke="#083D7E"/><line x1="1260.0" y1="795.5" x2="1262.9" y2="792.6" stroke="#083572"/><line x1="1260.3" y1="1110.0" x2="1263.1" y2="1107.2" stroke="#08336F"/><line x1="1262.8" y1="1101.7" x2="1265.7" y2="1098.9" stroke="#6D020E"/><line x1="1268.8" y1="75.6" x2="1272.3" y2="72.2" stroke="#083E80"/><line x1="1272.3" y1="72.2" x2="1275.3" y2="69.2" stroke="#083F82"/><line x1="1275.2" y1="67.1" x2="1278.1" y2="64.3" stroke="#084D96"/><line x1="1276.2" y1="66.1" x2="1279.1" y2="63.3" stroke="#084C95"/><line x1="1278.6" y1="65.1" x2="1281.4" y2="62.3" stroke="#0E58A2"/><line x1="1281.2" y1="62.6" x2="1284.0" y2="59.8" stroke="#084083"/><line x1="1283.1" y1="60.5" x2="1286.8" y2="56.8" stroke="#083B7C"/><line x1="1286.5" y1="57.1" x2="1289.3" y2="54.3" stroke="#084489"/><line x1="1288.5" y1="55.2" x2="1291.3" y2="52.4" stroke="#083A79"/><line x1="1291.2" y1="52.7" x2="1296.0" y2="48.0" stroke="#083C7C"/></g><text x="96.0" y="1493.5109517042638" font-size="16" text-anchor="middle">0</text><text x="225.3" y="1493.5109517042638" font-size="16" text-anchor="middle">500k</text><text x="354.5" y="1493.5109517042638" font-size="16" text-anchor="middle">1M</text><text x="483.8" y="1493.5109517042638" font-size="16" text-anchor="middle">1.5M</text><text x="613.1" y="1493.5109517042638" font-size="16" text-anchor="middle">2M</text><text x="742.3" y="1493.5109517042638" font-size="16" text-anchor="middle">2.5M</text><text x="871.6" y="1493.5109517042638" font-size="16" text-anchor="middle">3M</text><text x="1000.9" y="1493.5109517042638" font-size="16" text-anchor="middle">3.5M</text><text x="1130.1" y="1493.5109517042638" font-size="16" text-anchor="middle">4M</text><text x="1259.4" y="1493.5109517042638" font-size="16" text-anchor="middle">4.5M</text><text x="88.0" y="1469.5" font-size="16" text-anchor="end">0</text><text x="88.0" y="1340.2" font-size="16" text-anchor="end">500k</text><text x="88.0" y="1211.0" font-size="16" text-anchor="end">1M</text><text x="88.0" y="1081.7" font-size="16" text-anchor="end">1.5M</text><text x="88.0" y="952.5" font-size="16" text-anchor="end">2M</text><text x="88.0" y="823.2" font-size="16" text-anchor="end">2.5M</text><text x="88.0" y="693.9" font-size="16" text-anchor="end">3M</text><text x="88.0" y="564.7" font-size="16" text-anchor="end">3.5M</text><text x="88.0" y="435.4" font-size="16" text-anchor="end">4M</text><text x="88.0" y="306.1" font-size="16" text-anchor="end">4.5M</text><text x="88.0" y="176.9" font-size="16" text-anchor="end">5M</text><text x="88.0" y="48.0" font-size="16" text-anchor="end">0</text><text x="696.0" y="1537.5109517042638" font-size="20" font-weight="bold" text-anchor="middle">mg1655.NC_000913</text><text x="20.0" y="758.7" font-size="20" font-weight="bold" text-anchor="middle" transform="rotate(-90 20.0 758.7)">sakai.NC_002695</text><rect x="1026.0" y="1555.5" width="21.7" height="14.0" fill="#F7FBFF"/><rect x="1047.7" y="1555.5" width="21.7" height="14.0" fill="#E5EFF9"/><rect x="1069.3" y="1555.5" width="21.7" height="14.0" fill="#D3E4F3"/><rect x="1091.0" y="1555.5" width="21.7" height="14.0" fill="#BFD8EC"/><rect x="1112.7" y="1555.5" width="21.7" height="14.0" fill="#A2CCE2"/><rect x="1134.3" y="1555.5" width="21.7" height="14.0" fill="#7EB8DA"/><rect x="1156.0" y="1555.5" width="21.7" height="14.0" fill="#5CA4D0"/><rect x="1177.7" y="1555.5" width="21.7" height="14.0" fill="#3F8FC4"/><rect x="1199.3" y="1555.5" width="21.7" height="14.0" fill="#2777B8"/><rect x="1221.0" y="1555.5" width="21.7" height="14.0" fill="#1360A7"/><rect x="1242.7" y="1555.5" width="21.7" height="14.0" fill="#08488F"/><rect x="1264.3" y="1555.5" width="21.7" height="14.0" fill="#08306B"/><text x="1286.0" y="1543.5109517042638" font-size="20" text-anchor="end">forward blue / reverse red</text><text x="1026.0" y="1591.5109517042638" font-size="20" font-weight="bold">70%</text><text x="1286.0" y="1591.5109517042638" font-size="20" font-weight="bold" text-anchor="end">100%</text></svg>
